<svg xmlns="http://www.w3.org/2000/svg" width="76" height="32" fill="none"><path fill="#313232" d="M24.205 8.1v22.593s-.051 1.272 1.707 1.272c0 0 1.595.018 1.595-1.272V20.8s.001-1.906.767-2.09c1.15-.27 1.425 1.17 2.84 3.947 1.427 2.807 4.231 7.845 4.78 8.6.646.875 1.071.739 1.071.739s.482.054 1.188-1.302c.807-1.55 5.328-10.956 5.629-11.51.288-.534.67-1.142 1.494-1.142.485 0 1.307.473 1.344 1.617v9.506c0 .204.144 2.84 4.125 2.84 0 0 3.759-.01 3.759-2.84V9.838s-.043-4.545-4.293-4.545c0 0-1.325-.23-2.508.617-.878.632-1.562 1.868-2.505 4.004-2.26 5.13-4.52 10.492-5.602 10.492-1.16 0-2.69-2.052-5.455-7.927-2.699-5.735-3.15-7.08-5.843-7.08-2.658 0-4.093 1.202-4.093 2.702"/><path fill="#313232" d="M33.15 1.325h-.006C33.084.198 31.73.195 31.73.195H16.435l-.154-.003h-.10600000000000001l-.153.003h-14.4S.268.198.209 1.325H.204l.001.037V1.4h.003c.06 1.13 1.415 1.132 1.415 1.132h9.353c.343.057.764.114 1.013.386.256.23.419.557.419 1.124v25.259999999999998c0 1.49 1.743 2.663 3.424 2.663h.79c1.683 0 3.425-1.161 3.425-2.662V4.042c0-.566.163-.894.418-1.124.25-.272.67-.33 1.015-.385h10.25s1.353-.003 1.414-1.133h.005q-.002-.016-.003-.038.002-.016.003-.037M75.002 30.518h-1.343l-7.332-.003h-1.485c-1.38 0-1.603-.608-1.374-1.153.302-.715 10.246-21.208 10.7-22.212.579-1.28.013-2.048-1.086-2.048h-14.49c-1.457 0-1.456 1.05-1.456 1.05s0 1.05 1.456 1.05h5.895c.398 0 .674.15.817.414.105.193.148.512-.043.946-.674 1.556-8.573 18.876-8.573 18.876s-.736 1.559.028 3.018c.332.64 1.198 1.51 2.13 1.51H75.33c.309 0 .64-.173.702-.541.04-.221 0-.907-1.031-.907"/><path fill="#313232" d="M24.039 7.865v22.59s-.05 1.273 1.705 1.273c0 0 1.595.018 1.595-1.272v-9.891s.001-1.91.77-2.089c1.149-.274 1.426 1.165 2.84 3.944 1.427 2.806 4.23 7.843 4.783 8.596.64.876 1.066.741 1.066.741s.483.056 1.19-1.301c.806-1.55 5.329-10.955 5.626-11.507.288-.538.674-1.147 1.493-1.147.487 0 1.308.476 1.346 1.62v9.504c0 .205.144 2.841 4.125 2.841 0 0 3.759-.013 3.759-2.843V9.599s-.043-4.542-4.29-4.542c0 0-1.328-.233-2.51.615-.879.632-1.562 1.87-2.504 4.006-2.26 5.127-4.52 10.49-5.604 10.49-1.157 0-2.69-2.048-5.457-7.925-2.697-5.738-3.148-7.084-5.841-7.084-2.655 0-4.092 1.205-4.092 2.706"/><path fill="#313232" d="M32.983 1.088h-.003c-.062-1.126-1.413-1.129-1.413-1.129H16.27l-.155-.003h-.105l-.153.003h-14.4S.106-.038.045 1.088H.038q0 .021.004.038-.003.021-.004.038h.006c.061 1.13 1.414 1.133 1.414 1.133h9.353c.344.054.765.113 1.013.382.255.233.418.559.418 1.123v25.262c0 1.494 1.743 2.664 3.426 2.664h.79c1.68 0 3.427-1.162 3.427-2.664V3.802c0-.564.16-.89.416-1.123.249-.269.668-.328 1.013-.382h10.253s1.351-.003 1.413-1.133h.003l-.003-.037q.003-.018.003-.04M74.837 30.28h-1.343v-.002h-8.82c-1.377 0-1.602-.607-1.37-1.156.302-.712 10.245-21.208 10.698-22.21.58-1.277.014-2.048-1.087-2.048H58.428c-1.457 0-1.457 1.051-1.457 1.051s0 1.051 1.457 1.051h5.894c.399 0 .673.148.819.414.104.193.146.51-.044.946-.674 1.556-8.572 18.874-8.572 18.874s-.74 1.561.026 3.017c.334.639 1.197 1.511 2.129 1.511h16.487c.309 0 .638-.172.703-.536.038-.229 0-.912-1.033-.912"/></svg>