<svg xmlns="http://www.w3.org/2000/svg" width="169" height="20" fill="none"><path fill="#fff" d="M1 19.6a1 1 0 0 1-1-1V1.374a1 1 0 0 1 1-1h1.683a1 1 0 0 1 .893.55l5.265 10.443a1 1 0 0 0 1.786 0L15.892.924a1 1 0 0 1 .893-.55h1.683a1 1 0 0 1 1 1V18.6a1 1 0 0 1-1 1h-1.434a1 1 0 0 1-1-1v-6.186c0-1.059-1.43-1.391-1.897-.442l-3.479 7.07a1 1 0 0 1-.897.557h-.053a1 1 0 0 1-.898-.558l-3.479-7.069c-.467-.95-1.897-.617-1.897.442v6.185a1 1 0 0 1-1 1zM23.723 19.6a1 1 0 0 1-1-1V1.374a1 1 0 0 1 1-1H34.43a1 1 0 0 1 1 1v1.391a1 1 0 0 1-1 1H27.4a1 1 0 0 0-1 1v2.112a1 1 0 0 0 1 1h5.409a1 1 0 0 1 1 1v1.391a1 1 0 0 1-1 1H27.4a1 1 0 0 0-1 1v2.94a1 1 0 0 0 1 1h7.031a1 1 0 0 1 1 1V18.6a1 1 0 0 1-1 1zM57.318 19.6a1 1 0 0 1-1-1V1.374a1 1 0 0 1 1-1h1.677a1 1 0 0 1 1 1v13.834a1 1 0 0 0 1 1h6.383a1 1 0 0 1 1 1V18.6a1 1 0 0 1-1 1z"/><path fill="#0DA675" d="M77.49 20q-2.163 0-3.907-.748-1.731-.76-2.853-2.162a6.8 6.8 0 0 1-1.195-2.381c-.15-.534.236-1.05.785-1.13l1.945-.283c.51-.075.98.258 1.19.728q.467 1.044 1.385 1.69 1.272.895 2.894.895.906 0 1.757-.28.852-.28 1.393-.828a1.82 1.82 0 0 0 .554-1.349 1.7 1.7 0 0 0-.095-.56 1.4 1.4 0 0 0-.284-.521 2.1 2.1 0 0 0-.58-.454 4.4 4.4 0 0 0-.934-.387L74.49 10.76q-.568-.16-1.325-.454a5.9 5.9 0 0 1-1.447-.84q-.702-.548-1.176-1.443-.46-.908-.46-2.283 0-1.936.987-3.217t2.637-1.91T77.355 0q2.015.027 3.596.681a6.9 6.9 0 0 1 2.65 1.91 7.1 7.1 0 0 1 1.2 2.004c.219.546-.158 1.123-.738 1.22l-1.968.331c-.521.088-1.004-.257-1.246-.727a3.2 3.2 0 0 0-.48-.692 3.8 3.8 0 0 0-1.392-.975 4.7 4.7 0 0 0-1.676-.36 4.5 4.5 0 0 0-1.636.24q-.758.253-1.244.747a1.64 1.64 0 0 0-.473 1.175q0 .628.392 1.028.391.388.987.628.595.24 1.217.4l3.38.908q.756.201 1.676.534a7.2 7.2 0 0 1 1.758.908q.852.574 1.392 1.522.555.948.555 2.403 0 1.55-.663 2.71a5.7 5.7 0 0 1-1.757 1.91 8.3 8.3 0 0 1-2.515 1.121q-1.392.375-2.88.374M88.735 19.6a1 1 0 0 1-1-1V1.374a1 1 0 0 1 1-1h1.678a1 1 0 0 1 1 1v5.904a1 1 0 0 0 1 1h6.707a1 1 0 0 0 .999-1V1.374a1 1 0 0 1 1-1h1.678a1 1 0 0 1 1 1V18.6a1 1 0 0 1-1 1h-1.678a1 1 0 0 1-1-1v-5.931a1 1 0 0 0-1-1h-6.706a1 1 0 0 0-1 1v5.93a1 1 0 0 1-1 1zM108.052 19.6a1 1 0 0 1-1-1V1.374a1 1 0 0 1 1-1h10.708a1 1 0 0 1 1 1v1.391a1 1 0 0 1-1 1h-7.031a1 1 0 0 0-1 1v2.112a1 1 0 0 0 1 1h5.409a1 1 0 0 1 1 1v1.391a1 1 0 0 1-1 1h-5.409a1 1 0 0 0-1 1v2.94a1 1 0 0 0 1 1h7.031a1 1 0 0 1 1 1V18.6a1 1 0 0 1-1 1zM123.46 19.6a1 1 0 0 1-1-1V1.374a1 1 0 0 1 1-1h10.708a1 1 0 0 1 1 1v1.391a1 1 0 0 1-1 1h-7.031a1 1 0 0 0-1 1v2.112a1 1 0 0 0 1 1h5.409a1 1 0 0 1 1 1v1.391a1 1 0 0 1-1 1h-5.409a1 1 0 0 0-1 1v2.94a1 1 0 0 0 1 1h7.031a1 1 0 0 1 1 1V18.6a1 1 0 0 1-1 1zM143.384 19.6a1 1 0 0 1-1-1V4.764a1 1 0 0 0-1-1h-4.138a1 1 0 0 1-1-1v-1.39a1 1 0 0 1 1-1h13.953a1 1 0 0 1 1 1v1.39a1 1 0 0 1-1 1h-4.138a1 1 0 0 0-1 1V18.6a1 1 0 0 1-1 1zM161.186 20q-2.164 0-3.908-.748-1.73-.76-2.852-2.162a6.8 6.8 0 0 1-1.195-2.381c-.151-.534.236-1.05.785-1.13l1.944-.283c.51-.075.981.258 1.191.728q.466 1.044 1.385 1.69 1.27.895 2.893.895.906 0 1.758-.28.851-.28 1.392-.828.554-.548.554-1.349 0-.293-.094-.56a1.4 1.4 0 0 0-.284-.521 2.1 2.1 0 0 0-.582-.454 4.4 4.4 0 0 0-.932-.387l-5.057-1.469q-.567-.16-1.325-.454a5.9 5.9 0 0 1-1.446-.84q-.703-.548-1.177-1.443-.459-.908-.459-2.283 0-1.936.987-3.217.986-1.282 2.636-1.91T161.05 0q2.014.027 3.597.681a6.9 6.9 0 0 1 2.65 1.91 7.1 7.1 0 0 1 1.2 2.004c.218.546-.159 1.123-.739 1.22l-1.967.331c-.522.088-1.004-.257-1.247-.727a3.2 3.2 0 0 0-.479-.692 3.8 3.8 0 0 0-1.392-.975 4.7 4.7 0 0 0-1.677-.36 4.5 4.5 0 0 0-1.636.24q-.757.253-1.243.747-.474.494-.474 1.175 0 .628.393 1.028.392.388.986.628.596.24 1.217.4l3.38.908q.757.201 1.677.534a7.2 7.2 0 0 1 1.757.908 4.5 4.5 0 0 1 1.393 1.522q.554.948.554 2.403 0 1.55-.662 2.71a5.7 5.7 0 0 1-1.758 1.91 8.2 8.2 0 0 1-2.515 1.121q-1.392.375-2.879.374"/><path fill="#fff" fill-rule="evenodd" d="M43.465.374a1 1 0 0 0-.955.705l-5.33 17.225a1 1 0 0 0 .955 1.296h1.69a1 1 0 0 0 .957-.706l1.015-3.3h7.33l1.033 3.304a1 1 0 0 0 .955.701h1.694a1 1 0 0 0 .955-1.295l-5.33-17.225a1 1 0 0 0-.955-.705zm4.603 11.829-2.634-8.426.246-.798a.259.259 0 1 0-.495.001l.25.797-2.594 8.426z" clip-rule="evenodd"/><path fill="#fff" d="M45.68 2.979a.259.259 0 1 0-.495.001l.25.797z"/></svg>